<svg width="17" height="15" viewBox="0 0 17 15" fill="none" xmlns="http://www.w3.org/2000/svg">
<path d="M8.77801 14.7623C8.58904 14.8968 8.33404 14.8968 8.14507 14.7623C7.6193 14.3881 7.05812 14.0891 6.46154 13.8654C5.74359 13.5962 5 13.4615 4.23077 13.4615C3.69231 13.4615 3.16346 13.5321 2.64423 13.6731C2.125 13.8141 1.62821 14.0128 1.15385 14.2692C0.884615 14.4103 0.625 14.4038 0.375 14.25C0.125 14.0962 0 13.8718 0 13.5769V4.30769C0 4.16667 0.0352564 4.03205 0.105769 3.90385C0.176282 3.77564 0.282051 3.67949 0.423077 3.61538C1.01282 3.30769 1.62821 3.07692 2.26923 2.92308C2.91026 2.76923 3.5641 2.69231 4.23077 2.69231C4.97436 2.69231 5.70192 2.78846 6.41346 2.98077C7.03524 3.14882 7.635 3.39029 8.21273 3.7052C8.3683 3.78999 8.46154 3.95494 8.46154 4.13213V12.2498C8.46154 12.643 8.89793 12.887 9.25168 12.7155C9.66247 12.5164 10.085 12.3548 10.5192 12.2308C11.2372 12.0256 11.9615 11.9231 12.6923 11.9231C13.1538 11.9231 13.6058 11.9615 14.0481 12.0385C14.2694 12.077 14.4916 12.1251 14.7145 12.1828C15.0466 12.2689 15.3846 12.0277 15.3846 11.6846V3.75606C15.3846 3.45979 15.6749 3.2507 15.9519 3.35577V3.35577C16.1378 3.42628 16.3205 3.51282 16.5 3.61538C16.641 3.67949 16.7468 3.77564 16.8173 3.90385C16.8878 4.03205 16.9231 4.16667 16.9231 4.30769V13.5769C16.9231 13.8718 16.7981 14.0962 16.5481 14.25C16.2981 14.4038 16.0385 14.4103 15.7692 14.2692C15.2949 14.0128 14.7981 13.8141 14.2788 13.6731C13.7596 13.5321 13.2308 13.4615 12.6923 13.4615C11.9231 13.4615 11.1795 13.5962 10.4615 13.8654C9.86495 14.0891 9.30378 14.3881 8.77801 14.7623ZM10.8345 10.4028C10.5127 10.6924 10 10.4641 10 10.0312V4.05326C10 3.92065 10.0527 3.79348 10.1464 3.69971L12.9926 0.853553C13.3076 0.538571 13.8462 0.761654 13.8462 1.20711V7.46963C13.8462 7.61137 13.786 7.74645 13.6806 7.84127L10.8345 10.4028ZM6.23874 12.1838C6.57501 12.275 6.92308 12.0332 6.92308 11.6848V5.11948C6.92308 4.9188 6.80364 4.73601 6.61545 4.66634C6.28814 4.54517 5.95158 4.44806 5.60577 4.375C5.15064 4.27885 4.69231 4.23077 4.23077 4.23077C3.75641 4.23077 3.29487 4.27564 2.84615 4.36538C2.50545 4.43353 2.17214 4.52754 1.84621 4.64742C1.65787 4.71669 1.53846 4.89956 1.53846 5.10024V11.6848C1.53846 12.0332 1.88653 12.275 2.2228 12.1838C2.44097 12.1246 2.65837 12.0761 2.875 12.0385C3.31731 11.9615 3.76923 11.9231 4.23077 11.9231C4.69231 11.9231 5.14423 11.9615 5.58654 12.0385C5.80317 12.0761 6.02057 12.1246 6.23874 12.1838Z" fill="#222944"/>
</svg>
