<svg width="15" height="15" viewBox="0 0 15 15" fill="none" xmlns="http://www.w3.org/2000/svg">
<path d="M7.85355 10.8964C7.65829 11.0917 7.34171 11.0917 7.14645 10.8964L3.15991 6.90991C2.96706 6.71706 2.96433 6.40525 3.15376 6.20905L3.77156 5.56919C3.96575 5.36807 4.28712 5.36525 4.48481 5.56294L5.70895 6.78707C6.02393 7.10205 6.5625 6.87897 6.5625 6.43352V0.5C6.5625 0.223858 6.78636 0 7.0625 0H7.9375C8.21364 0 8.4375 0.223858 8.4375 0.5V6.43352C8.4375 6.87897 8.97607 7.10205 9.29105 6.78707L10.5152 5.56294C10.7129 5.36525 11.0343 5.36807 11.2284 5.56919L11.8462 6.20905C12.0357 6.40525 12.0329 6.71706 11.8401 6.90991L7.85355 10.8964ZM1.875 15C1.35937 15 0.917969 14.8164 0.550781 14.4492C0.183594 14.082 0 13.6406 0 13.125V10.8125C0 10.5364 0.223858 10.3125 0.5 10.3125H1.375C1.65114 10.3125 1.875 10.5364 1.875 10.8125V12.625C1.875 12.9011 2.09886 13.125 2.375 13.125H12.625C12.9011 13.125 13.125 12.9011 13.125 12.625V10.8125C13.125 10.5364 13.3489 10.3125 13.625 10.3125H14.5C14.7761 10.3125 15 10.5364 15 10.8125V13.125C15 13.6406 14.8164 14.082 14.4492 14.4492C14.082 14.8164 13.6406 15 13.125 15H1.875Z" fill="#222944"/>
</svg>
