<svg width="16" height="17" viewBox="0 0 16 17" fill="none" xmlns="http://www.w3.org/2000/svg">
<path d="M2 16C1.44772 16 1 15.5523 1 15V6.5C1 6.18524 1.14819 5.88885 1.4 5.7L7.06667 1.45C7.42222 1.18333 7.91111 1.18333 8.26667 1.45L13.9333 5.7C14.1851 5.88885 14.3333 6.18524 14.3333 6.5V15C14.3333 15.5523 13.8856 16 13.3333 16H10.3333C9.78105 16 9.33333 15.5523 9.33333 15V11.1667C9.33333 10.6144 8.88562 10.1667 8.33333 10.1667H7C6.44771 10.1667 6 10.6144 6 11.1667V15C6 15.5523 5.55228 16 5 16H2Z" stroke="#222944" stroke-width="2"/>
</svg>
