<svg width="20" height="24" viewBox="0 0 20 24" fill="none" xmlns="http://www.w3.org/2000/svg">
<path d="M0.887499 22.8875C0.397346 22.3973 0.397347 21.6027 0.8875 21.1125L8.58579 13.4142C9.36684 12.6332 10.6332 12.6332 11.4142 13.4142L19.1125 21.1125C19.6027 21.6027 19.6027 22.3973 19.1125 22.8875V22.8875C18.6223 23.3777 17.8277 23.3777 17.3375 22.8875L11.4142 16.9642C10.6332 16.1832 9.36683 16.1832 8.58579 16.9642L2.6625 22.8875C2.17235 23.3777 1.37765 23.3777 0.887499 22.8875V22.8875Z" fill="white" stroke="white"/>
<path d="M0.887498 10.8875C0.397346 10.3973 0.397346 9.60265 0.887498 9.1125L8.58579 1.41421C9.36684 0.633163 10.6332 0.633165 11.4142 1.41421L19.1125 9.1125C19.6027 9.60265 19.6027 10.3973 19.1125 10.8875C18.6223 11.3777 17.8277 11.3777 17.3375 10.8875L11.4142 4.96421C10.6332 4.18317 9.36683 4.18316 8.58579 4.96421L2.6625 10.8875C2.17235 11.3777 1.37765 11.3777 0.887498 10.8875Z" fill="white" stroke="white"/>
</svg>
