<svg width="15" height="15" viewBox="0 0 15 15" fill="none" xmlns="http://www.w3.org/2000/svg">
<path d="M11.8421 6.31579L10.6974 5.21053L11.9605 3.94737H7.89474V2.36842H11.9605L10.7368 1.14474L11.8421 0L15 3.19737L11.8421 6.31579ZM13.3816 15C11.7368 15 10.1118 14.6414 8.50658 13.9243C6.90132 13.2072 5.44079 12.1908 4.125 10.875C2.80921 9.55921 1.79276 8.09868 1.07566 6.49342C0.358553 4.88816 0 3.26316 0 1.61842C0 1.38158 0.0789474 1.18421 0.236842 1.02632C0.394737 0.868421 0.592105 0.789474 0.828947 0.789474H4.02632C4.21053 0.789474 4.375 0.851974 4.51974 0.976974C4.66447 1.10197 4.75 1.25 4.77632 1.42105L5.28947 4.18421C5.31579 4.39474 5.30921 4.57237 5.26974 4.71711C5.23026 4.86184 5.1579 4.98684 5.05263 5.09211L3.13816 7.02632C3.40132 7.51316 3.71382 7.98355 4.07566 8.4375C4.4375 8.89145 4.83553 9.32895 5.26974 9.75C5.67763 10.1579 6.10526 10.5362 6.55263 10.8849C7 11.2336 7.47368 11.5526 7.97368 11.8421L9.82895 9.98684C9.94737 9.86842 10.102 9.77961 10.2928 9.7204C10.4836 9.66118 10.6711 9.64474 10.8553 9.67105L13.5789 10.2237C13.7632 10.2763 13.9145 10.3717 14.0329 10.5099C14.1513 10.648 14.2105 10.8026 14.2105 10.9737V14.1711C14.2105 14.4079 14.1316 14.6053 13.9737 14.7632C13.8158 14.9211 13.6184 15 13.3816 15ZM2.38816 5.52632L3.69079 4.22368L3.35526 2.36842H1.59868C1.66447 2.9079 1.75658 3.44079 1.875 3.96711C1.99342 4.49342 2.16447 5.01316 2.38816 5.52632ZM9.45395 12.5921C9.96711 12.8158 10.4901 12.9934 11.023 13.125C11.5559 13.2566 12.0921 13.3421 12.6316 13.3816V11.6447L10.7763 11.2697L9.45395 12.5921Z" fill="#222944"/>
</svg>
