<svg width="14" height="15" viewBox="0 0 14 15" fill="none" xmlns="http://www.w3.org/2000/svg">
<path d="M11.25 15C10.625 15 10.0938 14.7813 9.65625 14.3438C9.21875 13.9062 9 13.375 9 12.75C9 12.6625 9.00625 12.5719 9.01875 12.4781C9.03125 12.3844 9.05 12.3 9.075 12.225L3.7875 9.15C3.575 9.3375 3.3375 9.48438 3.075 9.59063C2.8125 9.69688 2.5375 9.75 2.25 9.75C1.625 9.75 1.09375 9.53125 0.65625 9.09375C0.21875 8.65625 0 8.125 0 7.5C0 6.875 0.21875 6.34375 0.65625 5.90625C1.09375 5.46875 1.625 5.25 2.25 5.25C2.5375 5.25 2.8125 5.30313 3.075 5.40938C3.3375 5.51563 3.575 5.6625 3.7875 5.85L9.075 2.775C9.05 2.7 9.03125 2.61562 9.01875 2.52187C9.00625 2.42812 9 2.3375 9 2.25C9 1.625 9.21875 1.09375 9.65625 0.65625C10.0938 0.21875 10.625 0 11.25 0C11.875 0 12.4062 0.21875 12.8438 0.65625C13.2813 1.09375 13.5 1.625 13.5 2.25C13.5 2.875 13.2813 3.40625 12.8438 3.84375C12.4062 4.28125 11.875 4.5 11.25 4.5C10.9625 4.5 10.6875 4.44687 10.425 4.34062C10.1625 4.23437 9.925 4.0875 9.7125 3.9L4.425 6.975C4.45 7.05 4.46875 7.13437 4.48125 7.22812C4.49375 7.32187 4.5 7.4125 4.5 7.5C4.5 7.5875 4.49375 7.67813 4.48125 7.77188C4.46875 7.86563 4.45 7.95 4.425 8.025L9.7125 11.1C9.925 10.9125 10.1625 10.7656 10.425 10.6594C10.6875 10.5531 10.9625 10.5 11.25 10.5C11.875 10.5 12.4062 10.7187 12.8438 11.1562C13.2813 11.5938 13.5 12.125 13.5 12.75C13.5 13.375 13.2813 13.9062 12.8438 14.3438C12.4062 14.7813 11.875 15 11.25 15ZM11.25 3C11.4625 3 11.6406 2.92813 11.7844 2.78438C11.9281 2.64063 12 2.4625 12 2.25C12 2.0375 11.9281 1.85938 11.7844 1.71563C11.6406 1.57188 11.4625 1.5 11.25 1.5C11.0375 1.5 10.8594 1.57188 10.7156 1.71563C10.5719 1.85938 10.5 2.0375 10.5 2.25C10.5 2.4625 10.5719 2.64063 10.7156 2.78438C10.8594 2.92813 11.0375 3 11.25 3ZM2.25 8.25C2.4625 8.25 2.64063 8.17813 2.78438 8.03438C2.92813 7.89063 3 7.7125 3 7.5C3 7.2875 2.92813 7.10938 2.78438 6.96563C2.64063 6.82188 2.4625 6.75 2.25 6.75C2.0375 6.75 1.85938 6.82188 1.71563 6.96563C1.57188 7.10938 1.5 7.2875 1.5 7.5C1.5 7.7125 1.57188 7.89063 1.71563 8.03438C1.85938 8.17813 2.0375 8.25 2.25 8.25ZM11.25 13.5C11.4625 13.5 11.6406 13.4281 11.7844 13.2844C11.9281 13.1406 12 12.9625 12 12.75C12 12.5375 11.9281 12.3594 11.7844 12.2156C11.6406 12.0719 11.4625 12 11.25 12C11.0375 12 10.8594 12.0719 10.7156 12.2156C10.5719 12.3594 10.5 12.5375 10.5 12.75C10.5 12.9625 10.5719 13.1406 10.7156 13.2844C10.8594 13.4281 11.0375 13.5 11.25 13.5Z" fill="#222944"/>
</svg>
