<svg id="light-icon" width="382" height="56" viewBox="0 0 382 56" fill="none" xmlns="http://www.w3.org/2000/svg">
<path d="M99.0804 9.89685H108.446L102.685 45.5832H93.3532L95.4419 32.4298H87.4914L85.4026 45.5832H76.0708L81.7979 9.89685H91.1634L89.1084 22.5373H97.0253L99.0804 9.89685Z" fill="white"/>
<path d="M132.87 19.1665H120.978L120.372 23.0502H131.118L129.602 32.2466H118.856L118.216 36.2036H130.344L128.861 45.5832H107.368L113.128 9.89685H134.386L132.87 19.1665Z" fill="white"/>
<path d="M143.55 35.6907H154.297L152.68 45.5832H132.601L138.362 9.89685H147.694L143.55 35.6907Z" fill="white"/>
<path d="M166.424 35.6907H177.171L175.587 45.5832H155.509L161.236 9.89685H170.601L166.424 35.6907Z" fill="white"/>
<path d="M196.98 9.89685C200.147 9.89685 202.741 11.1059 204.729 13.5607C206.75 15.9423 207.491 19.1665 206.986 23.1968C206.48 26.934 205.032 29.9384 202.539 32.1733C200.113 34.3717 196.98 35.4708 193.106 35.4708H189.366L187.716 45.5832H178.384L184.145 9.89685H197.014H196.98ZM195.397 19.7894H191.893L190.95 25.615H194.689C196.138 25.615 197.485 24.4792 197.721 22.7205C198.058 20.8153 196.845 19.826 195.397 19.826" fill="white"/>
<path d="M231.713 19.1665H219.787L219.181 23.0502H229.928L228.446 32.2466H217.699L217.025 36.2036H229.187L227.704 45.5832H206.211L211.938 9.89685H233.196L231.713 19.1665Z" fill="white"/>
<path d="M254.083 32.5031L258.294 45.5466H248.962L245.593 34.335H242.595L240.776 45.5466H231.444L237.238 9.86023H250.31C253.712 9.86023 256.441 11.0693 258.496 13.5974C260.551 16.0522 261.259 19.1665 260.652 22.9403C259.945 27.2637 257.789 30.488 254.117 32.5397M245.054 19.2764L243.976 25.9081H247.817C249.636 25.9447 250.984 24.7356 251.32 22.6472C251.657 20.5588 250.68 19.2764 248.794 19.2764H245.054Z" fill="white"/>
<path d="M42.9876 13.6708C42.617 13.9639 42.2127 14.2203 41.9095 14.5501C34.9359 21.768 27.996 29.0225 21.056 36.277C20.0454 37.3395 19.1695 38.6219 18.2599 39.7943C17.8219 40.3806 17.6871 41.1133 17.6871 41.8828C17.7545 45.0703 18.9 47.7816 20.8539 50.0899C22.3699 51.8486 24.1554 53.2042 26.1094 54.34C26.4463 54.5232 26.7832 54.7064 27.0527 55.1094C26.1431 54.9629 25.1998 54.8163 24.2902 54.6698C20.2812 53.937 16.3059 52.9111 12.5327 51.2257C9.73656 49.98 7.10882 48.3679 4.88535 46.0596C2.5945 43.6781 0.977428 40.8569 0.26996 37.4494C-0.302752 34.7382 0.0678263 32.1368 1.0785 29.6087C2.08916 27.0806 3.53779 24.8823 5.25593 22.9038C7.68153 20.1925 10.2082 17.5911 12.6675 14.9531C12.7686 14.8432 12.9033 14.7333 13.0044 14.6234C15.6658 11.3625 19.1695 10.2267 23.01 9.93359C28.6024 9.49392 34.06 10.4465 39.4839 11.8022C40.2588 11.9854 41.0336 12.1686 41.7748 12.4617C42.179 12.6082 42.5159 12.9013 42.8865 13.1212C42.9202 13.3044 42.9539 13.4509 42.9876 13.6341" fill="white"/>
<path d="M21.4947 42.0292C21.8653 41.5529 22.0338 41.3331 22.2022 41.1499C28.2999 34.7747 34.4313 28.4362 40.529 22.061C42.0787 20.4489 43.561 18.7635 45.1107 17.1147C46.7615 15.3561 47.031 13.2677 46.5256 10.8861C45.8856 7.88173 44.3695 5.46356 42.2135 3.55833C40.967 2.45917 39.5857 1.50655 38.036 0.334106C40.5964 0.92033 42.9546 1.36 45.2791 1.98286C48.8502 2.89883 52.2864 4.21783 55.4532 6.26962C58.8558 8.46795 61.5509 11.3258 63.0669 15.3927C64.5155 19.2032 64.246 22.9403 62.5279 26.5676C61.5846 28.5095 60.4729 30.3414 59.0579 31.8802C55.9585 35.2877 52.7918 38.6584 49.5913 41.9559C47.9743 43.6047 45.8855 44.3008 43.7631 44.7039C40.2932 45.4 36.7895 45.2535 33.2859 44.8138C29.8833 44.3741 26.5144 43.678 23.2129 42.762C22.6739 42.6155 22.2022 42.359 21.4611 42.0659" fill="#D12D28"/>
<path d="M277.902 45.5466H272.309L277.699 9.89685H283.258L277.902 45.5466Z" fill="#D12D28"/>
<path d="M264.459 15.3561C263.078 15.3561 261.933 14.147 261.966 12.6081C261.966 11.1059 263.112 9.89685 264.493 9.89685C265.874 9.89685 267.02 11.1426 267.02 12.6448C267.02 14.147 265.908 15.3561 264.493 15.3561M262.404 12.6081C262.404 13.8539 263.348 14.9164 264.493 14.9164C265.638 14.9164 266.615 13.8905 266.615 12.6081C266.615 11.3624 265.672 10.3365 264.493 10.3365C263.348 10.3365 262.404 11.3624 262.404 12.6081Z" fill="white"/>
<path d="M265.065 12.7181C265.47 13.0478 265.537 13.5608 265.604 14.0737C265.604 14.147 265.604 14.1836 265.537 14.1836C265.267 14.1836 265.234 14.1836 265.2 13.8905C265.166 13.6707 265.099 13.4875 265.032 13.2676C264.897 12.9745 264.695 12.828 264.392 12.828C264.257 12.828 264.088 12.7547 263.987 12.828C263.92 12.9013 263.987 13.1211 263.987 13.2676C263.987 13.4875 263.987 13.744 263.987 13.9638C263.987 14.0737 263.987 14.147 263.853 14.147C263.516 14.147 263.583 14.147 263.583 13.8905C263.583 13.0478 263.583 12.2051 263.583 11.3258C263.583 11.1792 263.617 11.1426 263.718 11.1426C264.156 11.106 264.594 11.0327 264.998 11.1792C265.402 11.3258 265.571 11.6189 265.537 12.0586C265.537 12.2784 265.436 12.425 265.267 12.5349C265.2 12.5715 265.133 12.6081 265.065 12.6814M263.954 11.9486V12.3883C263.954 12.3883 263.954 12.4982 264.021 12.4982C264.29 12.4982 264.56 12.4982 264.83 12.425C265.032 12.3517 265.166 12.2051 265.133 11.9486C265.133 11.7288 265.032 11.5823 264.796 11.509C264.56 11.4357 264.29 11.4357 264.021 11.4357C263.954 11.4357 263.92 11.4723 263.92 11.5456C263.92 11.6922 263.92 11.8021 263.92 11.9486" fill="white"/>
<path d="M288.277 24.296L286.728 12.9012H288.85L289.894 21.6946L293.735 12.9012H296.093L290.838 24.296H288.277Z" fill="white"/>
<path d="M301.281 16.1621H303.201L301.888 24.2959H299.967L300.102 23.5631C299.462 24.2226 298.62 24.5524 297.609 24.5524C296.497 24.5524 295.655 24.1127 295.082 23.1968C294.543 22.3174 294.375 21.2549 294.577 20.0458C294.779 18.8734 295.251 17.9207 296.026 17.1513C296.801 16.3453 297.744 15.9789 298.822 15.9789C299.9 15.9789 300.641 16.4185 301.113 17.2979L301.281 16.1987V16.1621ZM300.607 20.3756V20.1191C300.81 18.8001 300.035 17.9574 298.889 17.9574C297.744 17.9574 296.733 18.8367 296.497 20.229C296.262 21.5846 297.003 22.5373 298.182 22.5373C299.327 22.5373 300.338 21.6579 300.574 20.3756" fill="white"/>
<path d="M303.672 24.2959L304.481 19.2031L305.559 12.4249H307.513L306.401 19.2764L305.593 24.2959H303.672Z" fill="white"/>
<path d="M313.578 16.1621H315.498L314.184 24.296H312.264L312.399 23.4166C311.826 24.1494 311.051 24.5158 310.074 24.5158C309.232 24.5158 308.592 24.2227 308.12 23.5998C307.648 23.0136 307.514 22.1709 307.682 21.145L308.491 16.1621H310.411L309.636 20.8885C309.468 21.9877 309.939 22.5739 310.849 22.5739C311.758 22.5739 312.5 21.9877 312.769 20.8153L313.51 16.1621H313.578Z" fill="white"/>
<path d="M323.752 21.1084H318.092C318.16 22.1342 318.901 22.6472 319.878 22.6472C320.619 22.6472 321.225 22.3907 321.731 21.8045L323.078 22.9769C322.236 24.0028 321.124 24.5158 319.743 24.5158C318.496 24.5158 317.553 24.0761 316.913 23.2334C316.273 22.3541 316.037 21.3282 316.239 20.0458C316.408 18.8734 316.913 17.8841 317.755 17.1147C318.598 16.3086 319.575 15.9423 320.686 15.9423C321.798 15.9423 322.674 16.3819 323.314 17.188C323.954 18.0307 324.156 19.0199 323.954 20.229C323.954 20.4855 323.853 20.742 323.752 21.1084ZM322.169 19.4596C322.169 18.3604 321.495 17.8475 320.585 17.8475C319.575 17.8475 318.8 18.4337 318.362 19.4596H322.169Z" fill="white"/>
<path d="M328.401 24.296L329.715 16.1621H331.635L330.321 24.296H328.401ZM331.231 12.6082C331.904 12.6082 332.342 13.1944 332.241 13.9272C332.107 14.6233 331.5 15.2095 330.86 15.2095C330.22 15.2095 329.782 14.6233 329.883 13.9272C329.984 13.1944 330.591 12.6082 331.264 12.6082" fill="white"/>
<path d="M339.485 16.8582C339.956 17.4445 340.091 18.2872 339.923 19.313L339.114 24.2959H337.194L337.969 19.5695C338.137 18.4703 337.666 17.8841 336.756 17.8841C335.846 17.8841 335.105 18.4703 334.836 19.6428L334.095 24.2959H332.174L333.488 16.1621H335.408L335.274 17.0414C335.846 16.3086 336.621 15.9423 337.598 15.9423C338.44 15.9423 339.081 16.2354 339.552 16.8582" fill="white"/>
<path d="M352.455 15.0629H348.109L347.704 17.5178H351.68L351.309 19.6062H347.368L346.963 22.1709H351.377L351.006 24.296H344.538L346.391 12.9012H352.792L352.455 15.0629Z" fill="white"/>
<path d="M358.115 16.1621H360.271L356.228 24.296H354.24L352.859 16.1621H354.847L355.588 21.7312L358.115 16.1621Z" fill="white"/>
<path d="M367.379 21.1084H361.719C361.786 22.1342 362.527 22.6472 363.504 22.6472C364.246 22.6472 364.852 22.3907 365.357 21.8045L366.705 22.9769C365.863 24.0028 364.751 24.5158 363.37 24.5158C362.123 24.5158 361.18 24.0761 360.54 23.2334C359.9 22.3541 359.664 21.3282 359.866 20.0458C360.034 18.8734 360.54 17.8841 361.382 17.1147C362.224 16.3086 363.201 15.9423 364.313 15.9423C365.425 15.9423 366.301 16.3819 366.941 17.188C367.581 18.0307 367.783 19.0199 367.581 20.229C367.581 20.4855 367.48 20.742 367.379 21.1084ZM365.795 19.4596C365.795 18.3604 365.122 17.8475 364.212 17.8475C363.201 17.8475 362.426 18.4337 361.988 19.4596H365.795Z" fill="white"/>
<path d="M371.253 17.4811C371.792 16.4918 372.634 16.0155 373.78 16.0155L373.409 18.3604C372.466 18.2138 371.152 18.6901 370.815 20.3389L370.175 24.2959H368.255L369.569 16.1621H371.489L371.287 17.4811H371.253Z" fill="white"/>
<path d="M379.844 16.1621H382L377.957 24.296C376.745 26.7874 375.33 27.6667 373.477 27.5568L373.78 25.615C374.858 25.615 375.363 25.2486 375.902 24.1128V24.0395L374.218 16.1987H376.205L377.317 21.6946L379.878 16.1987L379.844 16.1621Z" fill="white"/>
<path d="M285.616 41.2231L287.502 40.1973C287.772 41.3331 288.479 41.8826 289.692 41.8826C290.77 41.8826 291.444 41.4063 291.545 40.7102C291.713 39.8675 291.141 39.5378 289.692 39.0248C288.715 38.6584 287.974 38.2187 287.469 37.6692C286.963 37.1196 286.795 36.3502 286.963 35.3609C287.132 34.335 287.57 33.5656 288.277 33.016C289.018 32.4664 289.827 32.21 290.77 32.21C292.488 32.21 293.735 33.1259 294.274 34.7381L292.454 35.7639C292.084 34.8113 291.477 34.335 290.602 34.335C289.726 34.335 289.187 34.7747 289.052 35.4342C288.883 36.2402 289.456 36.6066 290.837 37.1562C291.208 37.3028 291.376 37.3394 291.747 37.5226C292.219 37.7424 292.589 37.9623 292.96 38.3287C293.499 38.8783 293.869 39.6477 293.634 40.8934C293.297 42.9452 291.713 44.0443 289.49 44.0443C287.367 44.0443 285.986 42.9818 285.616 41.2231Z" fill="white"/>
<path d="M295.419 42.6887C294.779 41.7727 294.576 40.7102 294.812 39.5011C295.014 38.3287 295.553 37.3761 296.362 36.6066C297.171 35.8372 298.181 35.4342 299.327 35.4342C300.472 35.4342 301.382 35.8739 301.988 36.7898C302.628 37.6692 302.83 38.7317 302.628 39.9408C302.46 41.1132 301.954 42.0659 301.078 42.8353C300.236 43.6047 299.293 44.0077 298.215 44.0077C296.968 44.0077 296.059 43.5681 295.419 42.6521M299.866 41.3331C300.337 40.93 300.607 40.3805 300.708 39.6843C300.944 38.3287 300.202 37.4493 299.091 37.4493C297.979 37.4493 296.968 38.3287 296.733 39.6843C296.497 41.04 297.238 41.9193 298.35 41.9193C298.922 41.9193 299.428 41.6995 299.866 41.2964" fill="white"/>
<path d="M303.37 43.8245L304.213 38.7317L305.291 31.9535H307.211L306.133 38.805L305.324 43.8245H303.37Z" fill="white"/>
<path d="M313.308 35.6907H315.228L313.915 43.8245H311.994L312.129 42.9452C311.556 43.678 310.782 44.0444 309.805 44.0444C308.962 44.0444 308.322 43.7512 307.851 43.1284C307.379 42.5422 307.244 41.6995 307.413 40.6736L308.221 35.6907H310.141L309.367 40.4171C309.198 41.5163 309.67 42.1025 310.579 42.1025C311.489 42.1025 312.23 41.5163 312.5 40.3438L313.241 35.6907H313.308Z" fill="white"/>
<path d="M319.271 37.7059L318.732 41.0767C318.597 41.9194 319.035 41.9927 320.282 41.9194L319.978 43.8247C317.452 44.1544 316.441 43.2751 316.778 41.0767L317.317 37.7059H316.003L316.34 35.6908H317.62L317.89 34.0421L319.911 33.4192L319.54 35.6908H321.259L320.922 37.7059H319.237H319.271Z" fill="white"/>
<path d="M321.326 43.8245L322.64 35.6907H324.56L323.246 43.8245H321.326ZM324.156 32.1367C324.829 32.1367 325.267 32.7229 325.166 33.4557C325.032 34.1519 324.425 34.7381 323.785 34.7381C323.145 34.7381 322.707 34.1519 322.808 33.4557C322.909 32.7229 323.516 32.1367 324.189 32.1367" fill="white"/>
<path d="M325.942 42.6887C325.302 41.7727 325.1 40.7102 325.335 39.5011C325.538 38.3287 326.077 37.3761 326.885 36.6066C327.694 35.8372 328.704 35.4342 329.85 35.4342C330.995 35.4342 331.905 35.8739 332.511 36.7898C333.151 37.6692 333.353 38.7317 333.151 39.9408C332.983 41.1132 332.478 42.0659 331.602 42.8353C330.759 43.6047 329.816 44.0077 328.738 44.0077C327.492 44.0077 326.582 43.5681 325.942 42.6521M330.389 41.3331C330.86 40.93 331.13 40.3805 331.231 39.6843C331.467 38.3287 330.726 37.4493 329.614 37.4493C328.502 37.4493 327.492 38.3287 327.256 39.6843C327.02 41.04 327.761 41.9193 328.873 41.9193C329.446 41.9193 329.951 41.6995 330.389 41.2964" fill="white"/>
<path d="M341.27 36.3868C341.741 36.973 341.876 37.8157 341.708 38.8416L340.899 43.8245H338.979L339.754 39.0981C339.922 37.9989 339.451 37.4127 338.541 37.4127C337.631 37.4127 336.89 37.9989 336.621 39.1714L335.879 43.8245H333.959L335.273 35.6907H337.193L337.059 36.57C337.631 35.8372 338.406 35.4708 339.383 35.4708C340.225 35.4708 340.865 35.7639 341.337 36.3868" fill="white"/>
<path d="M342.55 42.6154C342.685 41.846 343.291 41.2598 344.033 41.2598C344.774 41.2598 345.212 41.9193 345.077 42.6887C344.942 43.4581 344.336 44.0443 343.595 44.0443C342.887 44.0443 342.449 43.4215 342.55 42.6154Z" fill="white"/>
</svg>
