<svg width="500" height="500" viewBox="0 0 500 500" fill="none" xmlns="http://www.w3.org/2000/svg">
<path d="M224.2 168.807L238.752 183.359L174.352 229.857L159.853 215.357L183.535 198.165L171.182 185.812L147.499 203.004L133 188.504L197.347 141.954L211.899 156.506L189.065 172.954L201.366 185.255L224.2 168.807Z" fill="#222944"/>
<path d="M262.299 235.712L243.821 217.234L236.844 222.327L253.542 239.025L236.898 250.958L220.2 234.26L213.057 239.414L231.901 258.258L215.024 270.529L181.628 237.133L246.027 190.635L279.057 223.665L262.299 235.712Z" fill="#222944"/>
<path d="M253.218 277.981L269.917 294.68L252.033 307.538L220.836 276.34L285.235 229.842L299.735 244.342L253.218 277.981Z" fill="#222944"/>
<path d="M288.759 313.522L305.457 330.22L287.626 343.131L256.428 311.933L320.776 265.383L335.328 279.935L288.759 313.522Z" fill="#222944"/>
<path d="M376.314 320.922C381.235 325.842 383.387 331.751 382.661 338.654C382.101 345.495 378.243 351.656 371.196 357.133C364.604 362.155 357.685 364.572 350.339 364.171C343.154 363.818 336.578 360.658 330.558 354.638L324.748 348.828L306.471 361.975L291.971 347.476L356.371 300.978L376.367 320.974L376.314 320.922ZM358.483 333.832L353.04 328.388L342.522 335.974L348.333 341.785C350.583 344.036 354.442 344.365 357.541 341.998C361.025 339.562 360.677 336.14 358.427 333.889" fill="#222944"/>
<path d="M415.879 389.292L397.349 370.762L390.372 375.854L407.07 392.553L390.478 404.539L373.78 387.84L366.585 392.942L385.481 411.838L368.604 424.109L335.208 390.713L399.555 344.163L432.585 377.193L415.879 389.292Z" fill="#222944"/>
<path d="M429.914 444.772L416.191 471.582L401.691 457.082L413.877 434.427L409.218 429.769L388.971 444.362L374.472 429.863L438.924 383.417L459.234 403.727C464.521 409.014 466.882 415.133 466.147 422.254C465.526 429.261 461.786 435.199 454.98 440.121C447.163 445.739 438.803 447.399 429.91 444.881M436.437 410.192L424.458 418.821L430.425 424.789C433.195 427.672 437.168 427.887 440.936 425.166C444.704 422.444 445.179 418.934 442.247 416.002L436.437 410.192Z" fill="#222944"/>
<path d="M131.18 87.5154C130.149 87.395 129.122 87.1653 128.139 87.2066C106.089 87.5861 84.0335 88.0749 61.9785 88.5637C58.7572 88.6443 55.4037 89.2758 52.1687 89.6842C50.5773 89.9146 49.2294 90.8438 48.0339 92.0393C43.1858 97.0968 40.7528 103.089 40.2023 109.712C39.8252 114.8 40.4931 119.681 41.7644 124.481C42.0032 125.289 42.242 126.098 42.0345 127.143C40.8489 125.502 39.611 123.808 38.4254 122.167C33.3349 114.799 28.7522 107.029 25.5082 98.5473C23.0991 92.2671 21.5211 85.6793 21.6528 78.638C21.7937 71.3782 23.6647 64.4821 27.8598 58.0885C31.1827 52.9859 35.8004 49.5197 41.2989 47.162C46.7973 44.8043 52.4639 43.6394 58.2076 43.2348C66.1892 42.791 74.157 42.6749 82.0771 42.3972C82.4049 42.3835 82.7851 42.4221 83.1129 42.4083C92.3149 41.4769 99.5235 45.156 105.946 50.6679C115.319 58.6741 122.319 68.6342 128.64 79.1681C129.559 80.6567 130.478 82.1453 131.174 83.7523C131.575 84.6081 131.643 85.587 131.877 86.5044C131.645 86.8414 131.469 87.1214 131.237 87.4584" fill="#222944"/>
<path d="M53.7227 98.1833C55.0386 98.019 55.6419 97.9391 56.1882 97.9162C75.5683 97.4851 94.9438 97.1632 114.324 96.7321C119.237 96.6351 124.159 96.3196 129.128 96.1656C134.426 95.998 138.089 93.1718 141.005 88.6862C144.678 83.0235 146.08 76.9107 145.69 70.6003C145.461 66.9557 144.795 63.3294 144.209 59.0998C147.277 63.9889 150.258 68.3362 152.902 72.9158C157.027 79.8876 160.317 87.2762 162.049 95.3847C163.92 104.087 163.667 112.715 159.704 121.39C156.034 129.561 149.809 134.949 141.503 137.916C137.02 139.467 132.446 140.586 127.857 140.779C117.747 141.257 107.589 141.574 97.4924 141.725C92.4181 141.774 88.091 139.611 84.167 136.939C77.6938 132.629 72.4777 126.958 67.7169 120.831C63.1132 114.861 58.9603 108.544 55.2537 101.991C54.6439 100.926 54.3096 99.7949 53.6134 98.1879" fill="#D12D28"/>
<path d="M472.68 434.252C470.534 432.106 470.633 428.447 473.076 426.109C475.41 423.775 479.068 423.676 481.215 425.822C483.361 427.968 483.205 431.683 480.871 434.017C478.537 436.351 474.931 436.503 472.732 434.304M473.756 426.789C471.821 428.725 471.636 431.841 473.415 433.621C475.195 435.401 478.307 435.325 480.3 433.332C482.235 431.397 482.364 428.337 480.531 426.505C478.752 424.725 475.692 424.854 473.756 426.789Z" fill="#222944"/>
<path d="M477.72 431.095C477.836 432.235 477.144 433.137 476.451 434.039C476.338 434.153 476.281 434.21 476.176 434.105C475.757 433.686 475.705 433.634 476.108 433.126C476.397 432.732 476.577 432.343 476.814 431.896C477.06 431.232 476.974 430.69 476.503 430.219C476.293 430.009 476.145 429.634 475.874 429.591C475.656 429.6 475.419 430.046 475.191 430.274C474.85 430.615 474.451 431.014 474.11 431.355C473.939 431.526 473.825 431.64 473.616 431.431C473.092 430.907 473.197 431.012 473.595 430.613C474.905 429.304 476.214 427.995 477.58 426.628C477.808 426.401 477.917 426.396 478.074 426.553C478.812 427.177 479.606 427.743 480.007 428.599C480.407 429.455 480.213 430.172 479.478 430.803C479.136 431.145 478.752 431.215 478.319 431.124C478.157 431.076 477.996 431.029 477.777 431.038M477.188 428.172L476.505 428.855C476.505 428.855 476.334 429.026 476.439 429.131C476.858 429.549 477.277 429.968 477.809 430.273C478.237 430.473 478.674 430.455 479.02 430.004C479.362 429.662 479.433 429.278 479.18 428.797C478.928 428.317 478.509 427.898 478.09 427.48C477.985 427.375 477.876 427.38 477.762 427.493C477.535 427.721 477.364 427.892 477.136 428.12" fill="#222944"/>
</svg>
